<svg xmlns="http://www.w3.org/2000/svg" width="20" height="24" fill="none" xmlns:v="https://vecta.io/nano"><path d="M6.776 19.2c-.621 0-1.153-.235-1.595-.705s-.664-1.035-.664-1.695V2.4c0-.66.221-1.225.664-1.695S6.155 0 6.776 0h10.165c.621 0 1.153.235 1.595.705S19.2 1.74 19.2 2.4v14.4c0 .66-.221 1.225-.663 1.695s-.974.705-1.595.705H6.776zm0-2.4h10.165V2.4H6.776v14.4zM2.259 24c-.621 0-1.153-.235-1.595-.705S0 22.26 0 21.6V6a1.2 1.2 0 0 1 .325-.855 1.06 1.06 0 0 1 .805-.345 1.06 1.06 0 0 1 .805.345A1.2 1.2 0 0 1 2.259 6v15.6h11.294a1.06 1.06 0 0 1 .805.345 1.2 1.2 0 0 1 .325.855 1.2 1.2 0 0 1-.325.855 1.06 1.06 0 0 1-.805.345H2.259z" fill="#fff"/></svg>