<svg xmlns="http://www.w3.org/2000/svg" width="32" height="26" fill="none" xmlns:v="https://vecta.io/nano"><path d="M27.107 2.905c-2.102-.963-4.322-1.645-6.602-2.031a18.13 18.13 0 0 0-.846 1.719c-2.428-.366-4.898-.366-7.327 0-.252-.587-.534-1.161-.846-1.719A26.65 26.65 0 0 0 4.88 2.91C.702 9.091-.43 15.119.136 21.062a26.61 26.61 0 0 0 8.097 4.065c.656-.882 1.236-1.817 1.734-2.796-.947-.354-1.861-.79-2.731-1.304.229-.166.453-.337.669-.503a19.02 19.02 0 0 0 16.189 0c.219.179.443.35.669.503a17.29 17.29 0 0 1-2.736 1.306c.498.979 1.078 1.913 1.734 2.794a26.49 26.49 0 0 0 8.102-4.062c.665-6.891-1.135-12.864-4.757-18.159zM10.684 17.407c-1.578 0-2.882-1.432-2.882-3.194s1.258-3.206 2.877-3.206 2.912 1.445 2.884 3.207-1.271 3.194-2.879 3.194zm10.631 0c-1.581 0-2.879-1.432-2.879-3.194s1.259-3.206 2.879-3.206 2.905 1.445 2.877 3.207-1.268 3.194-2.877 3.194z" fill="#fff"/></svg>