<svg xmlns="http://www.w3.org/2000/svg" width="32" height="32" fill="none" xmlns:v="https://vecta.io/nano"><path fill-rule="evenodd" d="M16.013 0C7.158 0 0 7.333 0 16.406c0 7.252 4.587 13.391 10.949 15.563.795.163 1.087-.353 1.087-.787l-.026-3.042c-4.454.978-5.382-1.956-5.382-1.956-.716-1.901-1.777-2.39-1.777-2.39-1.458-1.005.106-1.005.106-1.005 1.617.109 2.466 1.684 2.466 1.684 1.431 2.499 3.738 1.793 4.666 1.358.132-1.059.557-1.793 1.008-2.2-3.553-.38-7.291-1.793-7.291-8.094 0-1.793.636-3.259 1.643-4.4-.159-.407-.716-2.092.159-4.346 0 0 1.352-.435 4.401 1.684 1.305-.359 2.651-.542 4.003-.543a15.16 15.16 0 0 1 4.003.543c3.049-2.119 4.401-1.684 4.401-1.684.875 2.254.318 3.939.159 4.346 1.034 1.141 1.644 2.607 1.644 4.4 0 6.302-3.738 7.687-7.317 8.094.584.516 1.087 1.494 1.087 3.042l-.026 4.509c0 .435.292.951 1.087.788C27.413 29.796 32 23.658 32 16.406 32.026 7.333 24.842 0 16.013 0z" fill="#fff"/></svg>