<svg width="24" height="12" viewBox="0 0 24 12" fill="none" xmlns="http://www.w3.org/2000/svg">
<path d="M10.8 12H6C4.34 12 2.925 11.415 1.755 10.245C0.585 9.075 0 7.66 0 6C0 4.34 0.585 2.925 1.755 1.755C2.925 0.585 4.34 0 6 0H10.8V2.4H6C5 2.4 4.15 2.75 3.45 3.45C2.75 4.15 2.4 5 2.4 6C2.4 7 2.75 7.85 3.45 8.55C4.15 9.25 5 9.6 6 9.6H10.8V12ZM7.2 7.2V4.8H16.8V7.2H7.2ZM13.2 12V9.6H18C19 9.6 19.85 9.25 20.55 8.55C21.25 7.85 21.6 7 21.6 6C21.6 5 21.25 4.15 20.55 3.45C19.85 2.75 19 2.4 18 2.4H13.2V0H18C19.66 0 21.075 0.585 22.245 1.755C23.415 2.925 24 4.34 24 6C24 7.66 23.415 9.075 22.245 10.245C21.075 11.415 19.66 12 18 12H13.2Z" fill="#AACCFF"/>
</svg>
