<svg xmlns="http://www.w3.org/2000/svg" width="128" height="128" viewBox="0 0 64 64">
  <path
    fill="#f5cc12"
    d="M29.5 14.5c-5.43 3.95-6.76 8.95-4 15a6.22 6.22 0 0 0 0 6c1.48-.93 2.82-.6 4 1 .44 1.88.44 3.88 0 6-2.53-3.58-5.2-3.74-8-.5-3.4.77-4.4-.4-3-3.5l-2-1c.2-.59.54-1.09 1-1.5-4.23-1.44-4.9-3.77-2-7-2.77-6.35-1.1-11.35 5-15 3.1-.74 6.1-.57 9 .5Z"
  ></path>
  <path
    fill="#1c5266"
    d="M37.5 19.5c2.36.17 4.7.5 7 1 1.83.75 3.5 1.75 5 3 4.64 3.46 5.97 7.96 4 13.5a54.1 54.1 0 0 0 2 5.5l-3 2c-.9 2.56-1.9 5.06-3 7.5a30.38 30.38 0 0 1-8-2.5 32.9 32.9 0 0 1-5.5 4 81.97 81.97 0 0 0-13.5-4v-1a15.26 15.26 0 0 0 7-6c.44-2.12.44-4.12 0-6-2.29-8.18.38-13.85 8-17Z"
  />
  <path
    fill="#e94907"
    d="M33.5 13.5a14.36 14.36 0 0 1 4 6c-7.62 3.15-10.29 8.82-8 17-1.18-1.6-2.52-1.93-4-1a6.22 6.22 0 0 1 0-6c-2.76-6.05-1.43-11.05 4-15 1.46.07 2.8-.27 4-1Z"
  />
  <path
    fill="#5e9b97"
    d="M49.5 23.5a18.94 18.94 0 0 0-5-3c-1.84-5.1-5.5-7.42-11-7a6.92 6.92 0 0 1-4 1 15.28 15.28 0 0 0-9-.5c-6.1 3.65-7.77 8.65-5 15-2.9 3.23-2.23 5.56 2 7-.46.41-.8.91-1 1.5l2 1c-1.4 3.1-.4 4.27 3 3.5 2.8-3.24 5.47-3.08 8 .5a15.26 15.26 0 0 1-7 6 5.83 5.83 0 0 0-4.5-2c-3.63 1.63-6.97 1.3-10-1 .02-4.62.85-9.12 2.5-13.5a8.43 8.43 0 0 0-4-.5 24.54 24.54 0 0 1 5.5-9C13.02 14.12 17.86 8.62 26.5 6 36.38 4.53 43.88 8.03 49 16.5c.5 2.31.66 4.64.5 7Z"
  />
  <path
    fill="#563213"
    d="M33.5 13.5c5.5-.42 9.16 1.9 11 7-2.3-.5-4.64-.83-7-1a14.36 14.36 0 0 0-4-6Z"
  />
  <path
    fill="#5c9c99"
    d="M22.5 49.5c4.6.94 9.1 2.28 13.5 4a32.9 32.9 0 0 0 5.5-4c1.78 2.72 3.45 5.56 5 8.5a531 531 0 0 1-22-1.5c-.27-2.47-.93-4.8-2-7Z"
  />
</svg>