<svg xmlns="http://www.w3.org/2000/svg" width="14" height="20" fill="none" xmlns:v="https://vecta.io/nano"><path d="M7 20a6.74 6.74 0 0 1-4.95-2.05A6.74 6.74 0 0 1 0 13V7a6.74 6.74 0 0 1 2.05-4.95A6.74 6.74 0 0 1 7 0a6.74 6.74 0 0 1 4.95 2.05A6.74 6.74 0 0 1 14 7v6a6.74 6.74 0 0 1-2.05 4.95A6.74 6.74 0 0 1 7 20zM8 7h4c0-1.2-.379-2.258-1.137-3.175S9.15 2.333 8 2.1V7zM2 7h4V2.1c-1.15.233-2.104.808-2.862 1.725S2 5.8 2 7zm5 11c1.383 0 2.563-.488 3.537-1.462S12 14.383 12 13V9H2v4c0 1.383.487 2.563 1.463 3.538S5.617 18 7 18z" fill="#bababa"/></svg>