<svg xmlns="http://www.w3.org/2000/svg" width="300" height="240" fill="none" xmlns:v="https://vecta.io/nano"><path d="M63.265 239.547c-13.402-2.536-25.888-4.02-37.615-7.773C11.707 227.311 2.386 217.833.38 202.603c-2.063-15.66 4.363-27.361 17.269-35.64 23.239-14.909 49.058-17.098 75.783-13.071 9.185 1.384 9.058 8.469 8.118 15.201-1.008 7.233-1.123 15.653-11.852 15.874-5.323.11-10.672-.969-15.994-.851-8.86.197-17.98-.168-26.455 1.853-4.774 1.139-8.476 6.581-12.661 10.084 4.121 3.265 7.847 8.64 12.425 9.457 31.547 5.635 63.092 6.72 92.718-8.034 20.993-10.454 22.07-27.74 2.317-40.05-12.316-7.675-25.857-13.547-39.107-19.696-51.157-23.738-43.072-68.181-20.66-95.233C110.742 8.141 149.488-3.826 193.239 1.038c27.99 3.112 38.616 28.127 23.461 51.719-14.896 23.187-38.514 34.38-64.196 41.515-5.349 1.486-15.32-.323-17.755-4.02-5.31-8.062 1.137-23.333 8.939-26.726 11.378-4.948 23.047-9.335 34.084-14.921 5.023-2.542 8.833-7.382 15.914-13.549-7.414-2.104-10.949-4-14.461-3.962-26.429.282-50.131 8.131-68.671 27.069-16.665 17.023-14.364 35.712 6.015 48.24 13.905 8.549 29.17 14.953 43.361 23.093 41.744 23.944 42.517 67.299 1.612 93.037-24.666 15.521-52.669 17.528-80.99 17.467-5.345-.012-10.69-.264-17.287-.452z" fill="#dcbd36"/><path d="M273.499 150.716c-14.191-2.651-22.032 2.996-26.701 14.594-1.768 4.393-3.875 9.432-7.441 12.154-4.134 3.155-10.043 4.085-15.182 5.981-1.018-5.026-3.487-10.288-2.68-15.016.961-5.626 4.734-10.793 8.157-17.984-8.548 0-15.475 1.25-21.569-.414-4.484-1.225-7.879-6.263-11.759-9.602 3.881-3.473 7.275-8.92 11.752-9.977 7.602-1.794 16.11.217 23.806-1.373 5.168-1.068 10.812-4.667 14.051-8.784 4.514-5.734 5.999-13.797 10.659-19.357 3.195-3.812 9.586-5.06 14.548-7.454 2.307 5.446 6.366 10.878 6.408 16.34.039 5.069-4.211 10.17-7.465 17.18 6.12-.344 11.049-1.776 15.165-.564 5.26 1.548 9.865 5.228 14.752 7.989-3.613 4.806-6.414 10.699-11.109 14.056-3.448 2.464-9.378 1.606-15.392 2.231z" fill="#ddbd36"/></svg>