<svg width="35" height="25" viewBox="0 0 35 25" fill="none" xmlns="http://www.w3.org/2000/svg">
<path d="M29.6483 2.09371C27.3488 1.10151 24.9212 0.397618 22.4276 0C22.0863 0.574897 21.7776 1.16639 21.5026 1.772C18.8464 1.39477 16.1452 1.39477 13.489 1.772C13.2139 1.16645 12.9051 0.574966 12.5641 0C10.0688 0.400976 7.63963 1.10654 5.33778 2.0989C0.768023 8.47084 -0.470766 14.6845 0.148628 20.81C2.82479 22.6735 5.82018 24.0907 9.0046 25C9.72163 24.0911 10.3561 23.1269 10.9013 22.1176C9.86578 21.7531 8.86631 21.3034 7.91446 20.7737C8.16497 20.6024 8.40998 20.426 8.64672 20.2548C11.4164 21.4823 14.4393 22.1188 17.4999 22.1188C20.5606 22.1188 23.5835 21.4823 26.3532 20.2548C26.5927 20.439 26.8377 20.6154 27.0854 20.7737C26.1317 21.3042 25.1304 21.7548 24.093 22.1202C24.6376 23.129 25.2721 24.0924 25.9898 25C29.1769 24.0943 32.1746 22.6778 34.8512 20.8126C35.578 13.709 33.6097 7.55241 29.6483 2.09371ZM11.6859 17.0429C9.95984 17.0429 8.53386 15.5666 8.53386 13.7505C8.53386 11.9344 9.91029 10.4452 11.6804 10.4452C13.4505 10.4452 14.8654 11.9344 14.8352 13.7505C14.8049 15.5666 13.445 17.0429 11.6859 17.0429ZM23.314 17.0429C21.5852 17.0429 20.1647 15.5666 20.1647 13.7505C20.1647 11.9344 21.5411 10.4452 23.314 10.4452C25.0868 10.4452 26.4908 11.9344 26.4605 13.7505C26.4302 15.5666 25.0731 17.0429 23.314 17.0429Z" fill="black"/>
</svg>
