<svg width="35" height="30" viewBox="0 0 35 30" fill="none" xmlns="http://www.w3.org/2000/svg">
<path d="M8.60518 17.4866L0.700826 14.8105C0.700826 14.8105 -0.243832 14.4122 0.0603478 13.5092C0.122965 13.323 0.249279 13.1645 0.627142 12.8922C2.37854 11.6237 33.044 0.170731 33.044 0.170731C33.044 0.170731 33.9099 -0.13244 34.4205 0.0692069C34.5469 0.109841 34.6605 0.184616 34.7499 0.28588C34.8393 0.387143 34.9012 0.511262 34.9293 0.645542C34.9845 0.882714 35.0075 1.12672 34.9978 1.37052C34.9954 1.58142 34.9709 1.7769 34.9522 2.08343C34.7655 5.21472 29.1763 28.5845 29.1763 28.5845C29.1763 28.5845 28.8419 29.952 27.6438 29.9988C27.3494 30.0087 27.0561 29.9569 26.7813 29.8464C26.5066 29.736 26.256 29.5692 26.0446 29.356C23.6935 27.2546 15.5673 21.5798 13.7717 20.3318C13.7311 20.3031 13.697 20.2658 13.6716 20.2222C13.6462 20.1787 13.6301 20.13 13.6243 20.0794C13.5992 19.9479 13.7368 19.7849 13.7368 19.7849C13.7368 19.7849 27.8867 6.71571 28.2632 5.34373C28.2924 5.23743 28.1823 5.18499 28.0344 5.23154C27.0946 5.59081 10.8027 16.2815 9.00464 17.4613C8.87521 17.502 8.73841 17.5107 8.60518 17.4866Z" fill="black"/>
</svg>
